<svg height='100px' width='100px'  fill="#bcbcbc" xmlns="http://www.w3.org/2000/svg" viewBox="0 0 100 100" x="0px" y="0px"><g data-name="Layer 2"><path d="M13,95H87a8,8,0,0,0,8-8V13a8,8,0,0,0-8-8H13a8,8,0,0,0-8,8V87A8,8,0,0,0,13,95ZM57.3,26.58a3,3,0,0,1,4.24-4.24l5.23,5.23L72,22.34a3,3,0,0,1,4.24,4.24L71,31.81l5.24,5.24a3,3,0,0,1-2.12,5.12A3,3,0,0,1,72,41.29l-5.24-5.23-5.23,5.23a3,3,0,0,1-4.24-4.24l5.23-5.24Zm-.93,30.56h20.8a3,3,0,0,1,0,6H56.37a3,3,0,1,1,0-6Zm0,10h20.8a3,3,0,0,1,0,6H56.37a3,3,0,1,1,0-6ZM22.83,28.81h20.8a3,3,0,0,1,0,6H22.83a3,3,0,1,1,0-6Zm0,33.33h7.4v-7.4a3,3,0,0,1,6,0v7.4h7.4a3,3,0,1,1,0,6h-7.4v7.4a3,3,0,0,1-6,0v-7.4h-7.4a3,3,0,0,1,0-6Z"></path></g></svg>