<svg height='100px' width='100px'  fill="#bcbcbc" xmlns="http://www.w3.org/2000/svg" viewBox="0 0 64 64" x="0px" y="0px"><g><path d="M59,10H5a1,1,0,0,0-1,1v7H60V11A1,1,0,0,0,59,10ZM9,15a1,1,0,1,1,1-1A1,1,0,0,1,9,15Zm4,0a1,1,0,1,1,1-1A1,1,0,0,1,13,15Zm4,0a1,1,0,1,1,1-1A1,1,0,0,1,17,15Zm38,0H33a1,1,0,0,1,0-2H55a1,1,0,0,1,0,2ZM4,53a1,1,0,0,0,1,1H59a1,1,0,0,0,1-1V20H4Zm27-2H15a1,1,0,0,1,0-2H31a1,1,0,0,1,0,2ZM19,37H35a1,1,0,0,1,0,2H19a1,1,0,0,1,0-2Zm-1-3a1,1,0,0,1,1-1h4a1,1,0,0,1,0,2H19A1,1,0,0,1,18,34Zm21,7a1,1,0,0,1,0,2H15a1,1,0,0,1,0-2Zm-9,5a1,1,0,0,1-1,1H25a1,1,0,0,1,0-2h4A1,1,0,0,1,30,46Zm-8,0a1,1,0,0,1-1,1H19a1,1,0,0,1,0-2h2A1,1,0,0,1,22,46Zm21,5H35a1,1,0,0,1,0-2h8a1,1,0,0,1,0,2Zm4-8H43a1,1,0,0,1,0-2h4a1,1,0,0,1,0,2Zm-8-6h8a1,1,0,0,1,0,2H39a1,1,0,0,1,0-2ZM27,33h8a1,1,0,0,1,0,2H27a1,1,0,0,1,0-2Zm-5.707-8.293a1,1,0,0,1,1.414-1.414l2,2a.9994.9994,0,0,1,0,1.414l-2,2a1,1,0,0,1-1.414-1.414L22.5859,26ZM17.03,27.7578l1-4a.9995.9995,0,0,1,1.9394.4844l-1,4a.9995.9995,0,1,1-1.9394-.4844ZM12.293,25.293l2-2a1,1,0,0,1,1.414,1.414L14.4141,26l1.2929,1.293a1,1,0,1,1-1.414,1.414l-2-2A.9994.9994,0,0,1,12.293,25.293ZM8,24a1,1,0,0,1,2,0V50a1,1,0,0,1-2,0Z"></path></g></svg>