<svg height='100px' width='100px'  fill="#bcbcbc" xmlns="http://www.w3.org/2000/svg" xmlns:xlink="http://www.w3.org/1999/xlink" version="1.1" x="0px" y="0px" viewBox="0 0 64 64" enable-background="new 0 0 64 64" xml:space="preserve"><g><path d="M11.26,35.17H7.88c-0.56,0-1,0.45-1,1v3.66c0,0.55,0.44,1,1,1h3.38v16.21c0,0.55,0.45,1,1,1s1-0.45,1-1V40.83h3.391   c0.55,0,1-0.45,1-1v-3.66c0-0.55-0.45-1-1-1H13.26V6.96c0-0.55-0.45-1-1-1s-1,0.45-1,1V35.17z"></path><path d="M32,58.04c0.55,0,1-0.45,1-1V21.85h3.39c0.551,0,1-0.449,1-1V17.2c0-0.561-0.449-1-1-1H33V6.96c0-0.55-0.45-1-1-1   s-1,0.45-1,1v9.24h-3.39c-0.551,0-1,0.439-1,1v3.649c0,0.551,0.449,1,1,1H31v35.19C31,57.59,31.45,58.04,32,58.04z"></path><path d="M51.74,5.96c-0.55,0-1,0.45-1,1v16.91H47.35c-0.55,0-1,0.45-1,1v3.66c0,0.55,0.45,1,1,1h3.391v27.51c0,0.55,0.45,1,1,1   s1-0.45,1-1V29.53h3.38c0.56,0,1-0.45,1-1v-3.66c0-0.55-0.44-1-1-1h-3.38V6.96C52.74,6.41,52.29,5.96,51.74,5.96z"></path></g></svg>