<svg height='100px' width='100px'  fill="#bcbcbc" xmlns="http://www.w3.org/2000/svg" xmlns:xlink="http://www.w3.org/1999/xlink" version="1.1" x="0px" y="0px" viewBox="0 0 60 60" enable-background="new 0 0 60 60" xml:space="preserve"><rect x="-14" y="-13" display="none" fill="#bcbcbc" width="198" height="87"></rect><path d="M32.798,16.307c-0.098-0.133-0.239-0.214-0.401-0.269c0.138-0.501,0.178-1.014,0.124-1.39  c-0.02-0.14,0.103-0.435,0.231-0.805c0.139-0.185,0.22-0.514,0.242-1.022c0.015-0.15,0.013-0.297-0.002-0.444  c-0.112-4.774-4.635-8.616-10.208-8.616c-5.643,0-10.217,3.938-10.217,8.796c0,0.162,0.004,0.299,0.011,0.424l-0.011,0.019  c0,0,0.005,0.018,0.015,0.053c0.025,0.4,0.088,0.608,0.192,0.673c0.184,0.623,0.151,1.556,0.277,2.364c0-0.001,0-0.001,0-0.001  c-0.108,0.053-0.203,0.122-0.275,0.218c-0.313,0.424-0.18,1.348-0.18,1.988c0,1.287,0.778,2.33,1.742,2.348  c1.218,4.663,4.537,8.014,8.448,8.014c3.912,0,7.231-3.352,8.449-8.014c0.965-0.019,1.742-1.062,1.742-2.348  C32.977,17.654,33.109,16.731,32.798,16.307z"></path><path d="M55.579,40.121V25.376h-19.91v13.938h-8.862V54.06h6.872v1.393h-2.198v0.785h10.564v-0.785h-2.081V54.06h6.752V42.3h4.19  v-0.784h-2.082v-1.395H55.579z M45.756,53.097H27.77V40.138h14.772v1.378h-2.2V42.3h5.413V53.097z M36.632,39.159V26.201h17.986  v12.958H36.632z"></path><rect x="38.238" y="27.485" width="14.773" height="10.391"></rect><path d="M34.666,29.909c-2.02-0.869-4.021-1.383-5.786-1.677c-0.913,0.971-4.214,4.539-6.156,7.543c0,0.015,0,0.026,0,0.041  c-0.017-0.004-0.031-0.015-0.045-0.02c-0.015,0.006-0.029,0.017-0.045,0.02c0-0.015,0-0.025,0-0.041  c-1.729-3.051-5.075-6.485-6.094-7.498c-3.693,0.652-8.347,2.25-12.08,6.064c-0.158,3.299,0.156,7.698,1.57,9.584  c1.274,1.699,3.445,4.928,13.294,5.549c0,0,2.745,0.279,5.758,0.099V38.007h9.587L34.666,29.909L34.666,29.909z"></path></svg>