<svg height='100px' width='100px'  fill="#bcbcbc" xmlns="http://www.w3.org/2000/svg" xmlns:xlink="http://www.w3.org/1999/xlink" version="1.1" x="0px" y="0px" viewBox="0 0 90 90" enable-background="new 0 0 90 90" xml:space="preserve"><path d="M68.105,59.896c-1.955,0-3.541,1.586-3.541,3.543v4.606c0,2.039-1.66,3.697-3.698,3.697h-6.896l5.121-5.123  c1.385-1.386,1.385-3.627,0-5.011c-1.384-1.385-3.628-1.385-5.01,0l-11.17,11.17c-1.383,1.384-1.383,3.628,0,5.011l11.17,11.172  c0.691,0.692,1.6,1.038,2.505,1.038c0.906,0,1.813-0.346,2.505-1.037c1.385-1.383,1.385-3.627,0-5.01l-5.121-5.123h6.896  c5.944,0,10.782-4.838,10.782-10.783v-4.607C71.648,61.482,70.063,59.896,68.105,59.896z"></path><path d="M47.045,16.67h13.821c2.038,0,3.698,1.659,3.698,3.697v3.949c0,1.957,1.586,3.543,3.541,3.543  c1.957,0,3.543-1.586,3.543-3.543v-3.949c0-5.945-4.838-10.782-10.782-10.782H47.045c-1.957,0-3.542,1.586-3.542,3.542  S45.088,16.67,47.045,16.67z"></path><path d="M28.22,0h-9.953c-4.494,0-8.149,3.656-8.149,8.15v9.953c0,4.494,3.655,8.15,8.149,8.15h9.953  c4.493,0,8.148-3.656,8.148-8.15V8.15C36.368,3.656,32.713,0,28.22,0z M29.283,18.103c0,0.587-0.477,1.064-1.063,1.064h-9.953  c-0.586,0-1.063-0.478-1.063-1.064V8.15c0-0.587,0.477-1.064,1.063-1.064h9.953c0.586,0,1.063,0.478,1.063,1.064V18.103z"></path><path d="M28.22,30.896h-9.953c-4.494,0-8.149,3.656-8.149,8.151v9.952c0,4.494,3.655,8.151,8.149,8.151h9.953  c4.493,0,8.148-3.657,8.148-8.151v-9.952C36.368,34.552,32.713,30.896,28.22,30.896z M29.283,48.998  c0,0.588-0.477,1.066-1.063,1.066h-9.953c-0.586,0-1.063-0.479-1.063-1.066v-9.952c0-0.588,0.477-1.065,1.063-1.065h9.953  c0.586,0,1.063,0.478,1.063,1.065V48.998z"></path><path d="M28.22,61.791h-9.953c-4.494,0-8.149,3.656-8.149,8.15v9.953c0,4.494,3.655,8.147,8.149,8.147h9.953  c4.493,0,8.148-3.653,8.148-8.147v-9.953C36.368,65.447,32.713,61.791,28.22,61.791z"></path><path d="M79.79,47.313c-0.185-0.631-0.591-1.151-1.142-1.465l-1.17-0.684c-0.228-0.13-0.352-0.393-0.317-0.681  c0.03-0.329,0.06-0.658,0.06-0.987c0-0.331-0.029-0.66-0.061-0.97c-0.032-0.277,0.092-0.539,0.322-0.67l1.17-0.686  c1.175-0.698,1.566-2.163,0.891-3.339l-1.081-1.845c-0.431-0.754-1.241-1.224-2.118-1.224c-0.441,0-0.865,0.113-1.224,0.326  l-1.162,0.68c-0.226,0.13-0.54,0.104-0.755-0.051l-0.326-0.244c-0.365-0.299-0.712-0.542-1.175-0.744  c-0.144-0.071-0.175-0.365-0.175-0.599v-1.368c0-1.786-2.086-1.786-2.87-1.786h-2.134c-0.682,0-2.271,0-2.271,1.786v1.339  c0,0.201-0.17,0.484-0.502,0.621c-0.704,0.321-1.29,0.656-1.746,0.998c-0.201,0.154-0.537,0.174-0.748,0.051l-1.163-0.682  c-0.358-0.214-0.782-0.328-1.229-0.328c-0.875,0-1.687,0.469-2.115,1.219l-1.087,1.857c-0.31,0.55-0.396,1.185-0.243,1.863  c0.178,0.642,0.575,1.151,1.143,1.469l1.17,0.687c0.228,0.13,0.352,0.391,0.313,0.723c-0.026,0.315-0.053,0.629-0.053,0.943  c0,0.317,0.026,0.635,0.059,1.001c0.032,0.276-0.093,0.539-0.313,0.667l-1.18,0.66c-1.172,0.699-1.563,2.164-0.894,3.332  l1.057,1.854c0.431,0.752,1.241,1.221,2.117,1.221c0.447,0,0.874-0.114,1.224-0.325l1.162-0.681c0.227-0.129,0.541-0.104,0.76,0.054  c0.455,0.334,1.063,0.67,1.808,0.997c0.305,0.134,0.492,0.423,0.492,0.617v1.336c0,1.359,0.911,2.813,2.271,2.813h2.135  c1.367,0,2.869-1.471,2.869-2.813V52.92c0-0.162,0.019-0.545,0.215-0.621c0.601-0.271,1.039-0.588,1.608-1  c0.202-0.154,0.483-0.164,0.685-0.053l1.137,0.682c0.355,0.215,0.781,0.33,1.23,0.33c0.854,0,1.641-0.451,2.117-1.221l1.079-1.902  C79.896,48.518,79.955,47.871,79.79,47.313z M67.609,48.355c-2.389,0-4.334-1.943-4.334-4.333s1.945-4.333,4.334-4.333  c2.392,0,4.336,1.944,4.336,4.333C71.945,46.412,70.001,48.355,67.609,48.355z"></path></svg>