<svg height='100px' width='100px'  fill="#bcbcbc" xmlns="http://www.w3.org/2000/svg" xmlns:xlink="http://www.w3.org/1999/xlink" version="1.1" x="0px" y="0px" viewBox="0 0 64 64" style="enable-background:new 0 0 64 64;" xml:space="preserve"><g><rect x="50" y="31.007" width="4" height="20"></rect><rect x="44" y="31.007" width="4" height="20"></rect><path d="M48.447,60.666c0.211,0.422,0.895,0.423,1.105-0.001l3.829-7.657h-8.764L48.447,60.666z"></path><rect x="44" y="27.007" width="10" height="2"></rect><circle cx="49" cy="15.007" r="2"></circle><path d="M49,3.007c-2.446,0-4.72,0.739-6.619,2H28.307l-5.495,14.654l-3.231-5.654H4v2h14.42l4.769,8.346l6.505-17.346h10.388   c-1.909,2.126-3.081,4.925-3.081,8c0,4.064,2.041,7.789,5.392,10H48v-6.142c-1.721-0.447-3-1.999-3-3.858c0-2.206,1.794-4,4-4   s4,1.794,4,4c0,1.859-1.279,3.411-3,3.858v6.142h5.608c3.351-2.211,5.392-5.936,5.392-10C61,8.39,55.617,3.007,49,3.007z"></path><circle cx="20" cy="44.007" r="4"></circle><path d="M20,34.007c-5.514,0-10,4.486-10,10s4.486,10,10,10s10-4.486,10-10S25.514,34.007,20,34.007z M20,50.007   c-3.309,0-6-2.691-6-6s2.691-6,6-6s6,2.691,6,6S23.309,50.007,20,50.007z"></path><path d="M33.503,40.364c-0.316-1.175-0.779-2.295-1.376-3.331l-0.292-0.506l1.759-2.968l-3.146-3.146l-2.968,1.759l-0.506-0.292   c-1.036-0.597-2.156-1.06-3.331-1.376l-0.563-0.152l-0.856-3.345h-4.447l-0.856,3.345l-0.563,0.152   c-1.175,0.316-2.295,0.779-3.331,1.376l-0.506,0.292l-2.968-1.759l-3.146,3.146l1.759,2.968l-0.292,0.506   c-0.597,1.036-1.06,2.156-1.376,3.331l-0.152,0.563L3,41.784v4.447l3.345,0.856l0.152,0.563c0.316,1.175,0.779,2.295,1.376,3.331   l0.292,0.506l-1.759,2.968l3.146,3.146l2.968-1.759l0.506,0.292c1.036,0.597,2.156,1.06,3.331,1.376l0.563,0.152l0.856,3.345h4.447   l0.856-3.345l0.563-0.152c1.175-0.316,2.295-0.779,3.331-1.376l0.506-0.292l2.968,1.759l3.146-3.146l-1.759-2.968l0.292-0.506   c0.597-1.036,1.06-2.156,1.376-3.331l0.152-0.563L37,46.231v-4.447l-3.345-0.856L33.503,40.364z M20,56.007   c-6.617,0-12-5.383-12-12s5.383-12,12-12s12,5.383,12,12S26.617,56.007,20,56.007z"></path><rect x="4" y="18.007" width="14" height="2"></rect><rect x="16" y="22.007" width="2" height="2"></rect><rect x="12" y="22.007" width="2" height="2"></rect><rect x="8" y="22.007" width="2" height="2"></rect><rect x="4" y="22.007" width="2" height="2"></rect></g></svg>