<svg height='100px' width='100px'  fill="#bcbcbc" xmlns="http://www.w3.org/2000/svg" xmlns:xlink="http://www.w3.org/1999/xlink" version="1.1" x="0px" y="0px" viewBox="0 0 100 100" enable-background="new 0 0 100 100" xml:space="preserve"><path d="M93.071,34.417H6.929c-1.065,0-1.929,0.896-1.929,2v24c0,1.104,0.863,2,1.929,2h86.143c1.065,0,1.929-0.896,1.929-2v-24  C95,35.313,94.137,34.417,93.071,34.417z M20.44,52.75c-2.393,0-4.333-1.939-4.333-4.333s1.94-4.333,4.333-4.333  c2.394,0,4.334,1.939,4.334,4.333S22.834,52.75,20.44,52.75z M36.773,52.75c-2.393,0-4.333-1.939-4.333-4.333  s1.94-4.333,4.333-4.333c2.394,0,4.334,1.939,4.334,4.333S39.167,52.75,36.773,52.75z M86.273,51.667c0,0.553-0.448,1-1,1H65.939  c-0.552,0-1-0.447-1-1v-6.5c0-0.553,0.448-1,1-1h19.334c0.552,0,1,0.447,1,1V51.667z M93.071,3.483H6.929  C5.863,3.483,5,4.379,5,5.483v24c0,1.104,0.863,2,1.929,2h86.143c1.065,0,1.929-0.896,1.929-2v-24  C95,4.379,94.137,3.483,93.071,3.483z M20.44,21.816c-2.393,0-4.333-1.939-4.333-4.333s1.94-4.333,4.333-4.333  c2.394,0,4.334,1.939,4.334,4.333S22.834,21.816,20.44,21.816z M36.773,21.816c-2.393,0-4.333-1.939-4.333-4.333  s1.94-4.333,4.333-4.333c2.394,0,4.334,1.939,4.334,4.333S39.167,21.816,36.773,21.816z M86.273,20.733c0,0.553-0.448,1-1,1H65.939  c-0.552,0-1-0.447-1-1v-6.5c0-0.553,0.448-1,1-1h19.334c0.552,0,1,0.447,1,1V20.733z M93.071,65.351H6.929  c-1.065,0-1.929,0.896-1.929,2v24c0,1.104,0.863,2,1.929,2h11.154v2.166c0,0.553,0.447,1,1,1h15c0.553,0,1-0.447,1-1v-2.166h29.833  v2.166c0,0.553,0.447,1,1,1h15c0.553,0,1-0.447,1-1v-2.166h11.155c1.065,0,1.929-0.896,1.929-2v-24  C95,66.246,94.137,65.351,93.071,65.351z M20.44,83.684c-2.393,0-4.333-1.939-4.333-4.333s1.94-4.333,4.333-4.333  c2.394,0,4.334,1.939,4.334,4.333S22.834,83.684,20.44,83.684z M36.773,83.684c-2.393,0-4.333-1.939-4.333-4.333  s1.94-4.333,4.333-4.333c2.394,0,4.334,1.939,4.334,4.333S39.167,83.684,36.773,83.684z M86.273,82.601c0,0.553-0.448,1-1,1H65.939  c-0.552,0-1-0.447-1-1v-6.5c0-0.553,0.448-1,1-1h19.334c0.552,0,1,0.447,1,1V82.601z"></path></svg>