<svg height='100px' width='100px'  fill="#bcbcbc" xmlns:x="http://ns.adobe.com/Extensibility/1.0/" xmlns:i="http://ns.adobe.com/AdobeIllustrator/10.0/" xmlns:graph="http://ns.adobe.com/Graphs/1.0/" xmlns="http://www.w3.org/2000/svg" xmlns:xlink="http://www.w3.org/1999/xlink" version="1.1" x="0px" y="0px" viewBox="0 0 100 100" style="enable-background:new 0 0 100 100;" xml:space="preserve"><g><g i:extraneous="self"><path d="M96,50.3l1.7-2L95.6,50H89c-0.1-0.4-0.2-0.8-0.6-1.1c-3.1-3.2-7-4.8-10.5-4c-0.9,0.2-2.3,0.8-3.7,1.8    c-6.3,0.1-7.2,0.1-9.4,0.1c0-2.5,0-3.2,0-3.4c0,0,0-0.1,0-0.1c-0.1-4.6-3.2-8.7-7.6-10c-1.4-0.4-2.3-0.4-2.5-0.4c0,0-0.5,0-0.6,0    c0,0-0.5,0-0.6,0c0,0-1.1,0-2.5,0.4c-5.4,1.7-8.8,7.3-7,13.4c0,0,3.6,10.9,3.7,11.1c0,0,0.3,1.1,0.4,1.1c0.9,2.7-0.4,5.8-3.2,7.1    c-4.9,2.1-10-2.7-7.9-8c0,0,0,0,0,0c0.2-0.5,4.7-10.5,4.7-10.5c3.6-8.4-1.7-18-10.7-19.3c-8.7-1.3-16.5,5.9-15.5,14.9    c0.5,4.1,2.4,6.2,4.3,8.9c1.6,2.2,1.6,2.2,1.7,2.4c0.7,1.2,0.5,2.1,0.5,2.3c-0.1,0.9-0.5,1.6-0.7,2c-0.3,0.5-1.1,1.2-1.6,1.4    c-1.6,0.7-3.4,0.3-4.5-0.8c-0.6-0.6-0.8-1.1-0.9-1.2c-0.3-0.7,0.1,0.7-1.2-3.9c-2.2-7.5-2.1-8-3.2-9.1c-2.5-2.6-6.7-1.7-7.5,2.1    c0,0.3-0.1,0.6-0.1,0.8c0,0.3,0.1,0.3,0.3,0.4c0.2-0.1,0.3,0,0.4-0.7c0.6-2.4,5.1-3.4,6.2-0.3c0.1,0.2,2.6,10.3,2.7,10.5    c0,0,0.1,0.6,0.6,1.5c1.4,2.6,4.1,3.8,6.5,3.5c5.2-0.7,7.4-5.9,5.3-9.9c-0.3-0.6-3.4-5.2-3.8-5.9c-4.3-7.6,1.8-16.5,10.2-15    c6.2,1.1,9.7,7.8,7.1,13.5c-4.8,9.8-3.7,7.6-4.9,10c0,0-0.1,0.2-0.1,0.3C27.9,66.4,39.5,76.2,49,70.1c4.2-2.7,6.1-7.8,5-12.5    C53.8,57,50.7,46.8,50.2,45c0,0-0.2-0.6-0.2-1.4c0-2.2,1.7-3.9,3.6-4.1c1.7-0.2,3.4,0.8,4.1,2.3c0.4,1,0.3,1.5,0.3,5    c0,0,0,0.2,0,0.3c0,0,0,0.1,0,0.7c0,0,0.3,4.2,4.4,5.6c0.7,0.3,1.4,0.3,2.1,0.4c0,0,9.7,0.1,9.8,0.1c1.4,1.1,2.7,1.6,3.7,1.8    c3.6,0.7,7.5-0.9,10.5-4c0.3-0.3,0.5-0.7,0.6-1.1h6.6l2.1,1.7L96,50.3z"></path></g></g></svg>