<svg height='100px' width='100px'  fill="#bcbcbc" xmlns="http://www.w3.org/2000/svg" xmlns:xlink="http://www.w3.org/1999/xlink" version="1.1" x="0px" y="0px" viewBox="0 0 100 100" enable-background="new 0 0 100 100" xml:space="preserve"><g><path d="M85.29,33.877c-4.437,0.032-8.061-3.548-8.063-7.991c-0.025-4.435,3.559-8.051,8.003-8.077   c4.434-0.014,8.042,3.564,8.067,8C93.315,30.25,89.742,33.868,85.29,33.877z"></path></g><g><path d="M49.78,51.63c0,0,7.261-3.227,13.8-3.049c4.692,0.128,9.227,0.927,13.304,2.235c2.363-4.771,5.461-10.356,7.855-13.9   c-3.724-3.839-11.794-2.113-14.56,3.995l-0.535,0.878c0,0-3.605-0.946-10.414-0.071c-6.809,0.875-11.41,3.363-11.064,6.685   C48.398,50.632,49.78,51.63,49.78,51.63z"></path><path d="M90.109,34.7c-3.273,3.042-7.106,9.665-10.719,16.98c6.447,2.395,11.396,5.524,13.485,6.947l6.525-27.016   C99.189,31.578,94.266,30.837,90.109,34.7z"></path></g><g><path d="M36.615,84.007c0,0,4.164-25.451,15.021-30.423c18.873-8.623,40.829,7.815,40.829,7.815l-5.64,22.662L36.615,84.007z"></path></g><path d="M33.685,84.062V70.254c0-3.054-2.477-5.532-5.532-5.532H10.48c-3.055,0-5.532,2.479-5.532,5.532v13.809H33.685z"></path><path d="M47.462,53.355H5.445c-2.546,0-4.61,2.063-4.61,4.609c0,2.547,2.064,4.61,4.61,4.61h35.014  C42.371,58.835,44.691,55.504,47.462,53.355z"></path></svg>