<svg height='100px' width='100px'  fill="#bcbcbc" xmlns="http://www.w3.org/2000/svg" xmlns:xlink="http://www.w3.org/1999/xlink" version="1.1" x="0px" y="0px" viewBox="0 0 67 67" enable-background="new 0 0 67 67" xml:space="preserve"><g><path d="M2.39015,59.83231c0.4507,1.8872,2.1294,3.2056,4.0816,3.2056h54.05659c1.9521,0,3.6309-1.3184,4.081-3.2036l1.3628-5.6538   c0.1512-0.6274-0.3242-1.2344-0.97211-1.2344h-0.9776v-32.8106c0-2.0898-1.7002-3.79-3.79-3.79h-0.5098   c0-1.299,0-11.0793,0-12.3799H7.28275c-0.0011,1.2659,0.0038-4.5855-0.0103,12.3799h-0.5097c-2.0845,0-3.7803,1.7002-3.7803,3.79   v32.8106h-0.9824c-0.648,0-1.1234,0.607-0.9722,1.2344L2.39015,59.83231z M59.72265,18.34551h0.5098   c0.9868,0,1.79,0.8032,1.79,1.79v32.8101h-2.2998V18.34551z M9.28275,5.96561h48.4399v2.1549l-30.1211,0.0028v2l30.1211-0.0028   v2.1552H9.28275V5.96561z M9.27245,14.27571h48.4502c0,11.0411,0,20.1387,0,38.6699c-16.6699,0-29.4034,0-48.4502,0   C9.27245,41.51501,9.27245,31.85001,9.27245,14.27571z M38.82885,54.95591l-0.0173,1.5146l-10.6519-0.0288v-1.4858H38.82885z    M4.98245,20.13551c0-0.9868,0.7988-1.79,1.7803-1.79h0.5097v34.6001h-2.29V20.13551z M26.15965,54.95591v1.4858   c0,1.1186,0.9102,2.0288,2.0289,2.0288h10.623c1.1186,0,2.0288-0.9102,2.0288-2.0288v-1.4858   c0.6713-0.0003,22.2147-0.0095,22.8901-0.0098l-1.0659,4.4214c-0.23479,0.9834-1.1133,1.6704-2.1362,1.6704H6.47175   c-1.023,0-1.9014-0.687-2.1368-1.6724l-1.0654-4.4194C5.61005,54.94711-5.20905,54.94251,26.15965,54.95591z"></path><path d="M55.52245,16.27571h-44.0498v34.6699h44.0498V16.27571z M53.52245,48.94561h-40.0498v-30.6699h40.0498V48.94561z"></path><rect x="20.80225" y="8.12331" width="2.3189" height="2"></rect><rect x="16.17676" y="8.12331" width="2.3189" height="2"></rect><rect x="11.55125" y="8.12331" width="2.3189" height="2"></rect><path d="M22.25365,37.25441h6.128l1.2514,2.9077h2.834l-6.0176-13.103h-2.3188l-6.0181,13.103h2.8897L22.25365,37.25441z    M25.32695,30.15091l2.1162,4.9135h-4.2329L25.32695,30.15091z"></path><path d="M36.46075,34.86181h3.0732c2.6028,0,4.582-1.2957,4.582-3.9014c0-2.6122-1.9328-3.9013-4.582-3.9013h-5.9443v13.103   h2.87111V34.86181z M36.46075,29.26761h2.705c1.49659,0,2.24519,0.5703,2.24519,1.7114c0,1.1289-0.7486,1.6929-2.24519,1.6929   h-2.705V29.26761z"></path><rect x="46.01146" y="27.05911" width="2.8711" height="13.103"></rect></g></svg>