<svg height='100px' width='100px'  fill="#bcbcbc" xmlns="http://www.w3.org/2000/svg" viewBox="0 0 64 64" x="0px" y="0px"><g data-name="Layer 2"><path d="M52,15.47961a2,2,0,0,0,2,2h7l-9-9Z"></path><path d="M16,35.47949a17.86743,17.86743,0,0,1-2-.19208v19.1922a1.003,1.003,0,0,0,1,1H50a1.003,1.003,0,0,0,1-1v-25a1.003,1.003,0,0,0-1-1H28.10571A13.99683,13.99683,0,0,1,16,35.47949Zm11-.79a1,1,0,0,1,1.4903-.87158L41.45056,41.108a1,1,0,0,1,0,1.74317L28.4903,50.14136A1,1,0,0,1,27,49.26978Z"></path><path d="M51,15.47949V8.47961H41a2.00591,2.00591,0,0,0-2,2V27.47949H50a2.00229,2.00229,0,0,1,2,2v5.00012h7a2.00587,2.00587,0,0,0,2-2V18.47949H54A3.00328,3.00328,0,0,1,51,15.47949Zm-8.03375-2.99988h2.99994a1.00019,1.00019,0,0,1,.00006,2h-3A1.00019,1.00019,0,0,1,42.96625,12.47961Zm0,5h7.99994a1.00019,1.00019,0,0,1,.00006,2h-8A1.00019,1.00019,0,0,1,42.96625,17.47961Zm13,7H42.96631a1.00019,1.00019,0,0,1-.00006-2h13A1.0002,1.0002,0,0,1,55.96625,24.47961Z"></path><path d="M16,34.47961a13,13,0,0,0,.00012-26C-1.23932,9.16174-1.2442,33.79486,16,34.47961Zm0-11.44354V12.47968a1.0018,1.0018,0,0,1,1.98633-.1651c.28369,1.68505,1.39355,5.165,3.01367,5.165a1.00023,1.00023,0,0,1,1.00012,1c-.341,2.14551-3.35388.43024-4.00012-.71044v8.71032a4,4,0,1,1-2-3.44342Z"></path></g></svg>