<svg height='100px' width='100px'  fill="#bcbcbc" xmlns="http://www.w3.org/2000/svg" viewBox="0 0 64 64" x="0px" y="0px"><g><rect x="8" y="16" width="30" height="2"></rect><rect x="8" y="21" width="30" height="2"></rect><rect x="8" y="26" width="30" height="2"></rect><rect x="8" y="31" width="30" height="2"></rect><rect x="8" y="36" width="30" height="2"></rect><rect x="8" y="41" width="30" height="2"></rect><rect x="8" y="46" width="30" height="2"></rect><rect x="7.993" y="50.998" width="30" height="2"></rect><path d="M59.5,13.96a5,5,0,0,0-6.83,1.83L52,16.95V3a1,1,0,0,0-1-1H11a1.033,1.033,0,0,0-.71.29A1.007,1.007,0,0,0,10,3l.01,3H7a1.033,1.033,0,0,0-.71.29A1.007,1.007,0,0,0,6,7v3H3a1,1,0,0,0-1,1V61a1,1,0,0,0,1,1H43a1,1,0,0,0,1-1V58h3a1.033,1.033,0,0,0,.71-.29A1.052,1.052,0,0,0,48,57V54h3a.99.99,0,0,0,1-1l-.01-16.04,7.17-12.42.67-1.15,1.5-2.6A5,5,0,0,0,59.5,13.96ZM50,4V20.41l-.83,1.44L48,23.88V7a1,1,0,0,0-1-1H12.01L12,4ZM8,8H46V27.34L44,30.8V11a1,1,0,0,0-1-1H8ZM42,60H4V12H42V34.27L39.67,38.3a1.021,1.021,0,0,0-.13.57L40,46.06a1.006,1.006,0,0,0,.5.81,1.023,1.023,0,0,0,.94.03l.56-.28Zm4-4H44V45.63l2-.98ZM41.9,44.44l-.31-4.88.97-.26.47,1.76a1.009,1.009,0,0,0,1.23.71l1.77-.47.26.97ZM50,52H48l-.01-8.36a1,1,0,0,0,.34-.34L50,40.42ZM47.81,40.21l-.11-.4a1.006,1.006,0,0,0-.47-.6.963.963,0,0,0-.76-.1l-1.76.47-.48-1.77a.988.988,0,0,0-1.22-.7l-.4.1L50.4,23.72l5.2,3Zm9.34-16.18-.55.95-5.2-3,.55-.95.02-.03H52v-.05l.4-.7,5.2,3Zm2.45-4.24-1,1.73-5.2-3,1-1.73a3,3,0,0,1,4.1-1.1A3.014,3.014,0,0,1,59.6,19.79Z"></path></g></svg>