<svg height='100px' width='100px'  fill="#bcbcbc" xmlns="http://www.w3.org/2000/svg" xmlns:xlink="http://www.w3.org/1999/xlink" version="1.1" x="0px" y="0px" viewBox="0 0 100 100" enable-background="new 0 0 100 100" xml:space="preserve"><path d="M48.688,10.131h-5.432c0,0,0.067,0.067,2.481,2.414l42.384,42.317c2.414,2.347,2.414,2.481,0.067,4.829L62.369,85.443  l2.615,2.615c2.414,2.414,2.347,2.414,4.761,0l28.502-28.368c2.347-2.347,2.347-2.481-0.067-4.829L55.797,12.545  C53.382,10.198,53.315,10.131,48.688,10.131z M16.766,20.056c3.688,0,6.706,3.018,6.706,6.706s-3.018,6.706-6.706,6.706  s-6.706-3.018-6.706-6.706S13.077,20.056,16.766,20.056z M28.569,10.131H0v28.502c0,4.694,0,4.694,2.414,7.109l42.451,42.317  c2.414,2.414,2.347,2.414,4.762,0l28.502-28.368c2.347-2.347,2.347-2.481-0.067-4.829L35.678,12.545  C33.263,10.198,33.196,10.131,28.569,10.131z"></path></svg>